<svg xmlns="http://www.w3.org/2000/svg" version="1.1" xmlns:xlink="http://www.w3.org/1999/xlink" xmlns:svgjs="http://svgjs.dev/svgjs" width="1000" height="101" viewBox="0 0 1000 101"><g transform="matrix(1,0,0,1,-0.6060606060606233,0.301445061704392)"><svg viewBox="0 0 396 40" data-background-color="#ffffff" preserveAspectRatio="xMidYMid meet" height="101" width="1000" xmlns="http://www.w3.org/2000/svg" xmlns:xlink="http://www.w3.org/1999/xlink"><g id="tight-bounds" transform="matrix(1,0,0,1,0.2400000000000091,-0.11938418285322427)"><svg viewBox="0 0 395.52 40.23876836570647" height="40.23876836570647" width="395.52"><g><svg viewBox="0 0 461.57071997626355 46.958528735632164" height="40.23876836570647" width="395.52"><g><rect width="3.872048724156321" height="46.958528735632164" x="52.042418047509564" y="0" fill="#000000" opacity="1" stroke-width="0" stroke="transparent" fill-opacity="1" class="rect-in-0" data-fill-palette-color="primary" rx="1%" id="in-0" data-palette-color="#000000"></rect></g><g transform="matrix(1,0,0,1,66.05071997626358,0.11681226053639548)"><svg viewBox="0 0 395.52 46.72490421455937" height="46.72490421455937" width="395.52"><g><svg viewBox="0 0 395.52 46.72490421455937" height="46.72490421455937" width="395.52"><g><svg viewBox="0 0 395.52 46.72490421455937" height="46.72490421455937" width="395.52"><g transform="matrix(1,0,0,1,0,0)"><svg width="395.52" viewBox="5.400000000000002 -33.5 313.2 34" height="46.72490421455937" data-palette-color="#000000"><svg></svg><g class="undefined-text-0" data-fill-palette-color="primary" id="text-0"><path d="M17.1 0h-11.7v-33h11.75c3.9 0 6.75 0.817 8.55 2.45 1.8 1.633 2.7 3.85 2.7 6.65v0c0 1.667-0.483 3.173-1.45 4.52-0.967 1.353-2.333 2.213-4.1 2.58v0 0.05c1.967 0.367 3.527 1.257 4.68 2.67 1.147 1.42 1.72 3.03 1.72 4.83v0c0 2.8-1.05 5.04-3.15 6.72-2.1 1.687-5.1 2.53-9 2.53zM9.4-14.75v11h8.65c2.367 0 4.127-0.483 5.28-1.45 1.147-0.967 1.72-2.317 1.72-4.05v0c0-1.767-0.573-3.127-1.72-4.08-1.153-0.947-2.913-1.42-5.28-1.42v0zM9.4-29.25v10.75h7.8c4.667 0 7-1.8 7-5.4v0c0-3.567-2.333-5.35-7-5.35v0zM51.35-33.5v0c3.133 0 5.843 0.69 8.13 2.07 2.28 1.387 4.047 3.347 5.3 5.88 1.247 2.533 1.87 5.55 1.87 9.05v0c0 3.5-0.623 6.517-1.87 9.05-1.253 2.533-3.02 4.49-5.3 5.87-2.287 1.387-4.997 2.08-8.13 2.08v0c-3.133 0-5.84-0.693-8.12-2.08-2.287-1.38-4.057-3.337-5.31-5.87-1.247-2.533-1.87-5.55-1.87-9.05v0c0-3.5 0.623-6.517 1.87-9.05 1.253-2.533 3.023-4.493 5.31-5.88 2.28-1.38 4.987-2.07 8.12-2.07zM51.35-29.75v0c-2.267 0-4.233 0.523-5.9 1.57-1.667 1.053-2.95 2.57-3.85 4.55-0.9 1.987-1.35 4.363-1.35 7.13v0c0 2.767 0.45 5.14 1.35 7.12 0.9 1.987 2.183 3.503 3.85 4.55 1.667 1.053 3.633 1.58 5.9 1.58v0c2.3 0 4.273-0.527 5.92-1.58 1.653-1.047 2.93-2.563 3.83-4.55 0.9-1.98 1.35-4.353 1.35-7.12v0c0-2.767-0.45-5.143-1.35-7.13-0.9-1.98-2.177-3.497-3.83-4.55-1.647-1.047-3.62-1.57-5.92-1.57zM88.75-33.5v0c3.133 0 5.843 0.69 8.13 2.07 2.28 1.387 4.043 3.347 5.29 5.88 1.253 2.533 1.88 5.55 1.88 9.05v0c0 3.5-0.627 6.517-1.88 9.05-1.247 2.533-3.01 4.49-5.29 5.87-2.287 1.387-4.997 2.08-8.13 2.08v0c-3.133 0-5.84-0.693-8.12-2.08-2.287-1.38-4.053-3.337-5.3-5.87-1.253-2.533-1.88-5.55-1.88-9.05v0c0-3.5 0.627-6.517 1.88-9.05 1.247-2.533 3.013-4.493 5.3-5.88 2.28-1.38 4.987-2.07 8.12-2.07zM88.75-29.75v0c-2.267 0-4.233 0.523-5.9 1.57-1.667 1.053-2.95 2.57-3.85 4.55-0.9 1.987-1.35 4.363-1.35 7.13v0c0 2.767 0.45 5.14 1.35 7.12 0.9 1.987 2.183 3.503 3.85 4.55 1.667 1.053 3.633 1.58 5.9 1.58v0c2.3 0 4.273-0.527 5.92-1.58 1.653-1.047 2.93-2.563 3.83-4.55 0.9-1.98 1.35-4.353 1.35-7.12v0c0-2.767-0.45-5.143-1.35-7.13-0.9-1.98-2.177-3.497-3.83-4.55-1.647-1.047-3.62-1.57-5.92-1.57zM133.45-33h5.25l-14.4 14.75-0.6 0.65-8.85 9.05v-5.4zM112.85-33h4v33h-4zM121.4-18.55l3.3-2.25 14.15 20.8h-4.8zM145.75 0h-4.2l12.85-33h4.75l12.8 33h-4.25l-9.4-24.6-1.55-4.6h-0.1l-1.45 4.45zM165.5-9.15h-17.65v-3.75h17.65zM178.65-33h12.5c3.367 0 6.067 0.867 8.1 2.6 2.033 1.733 3.05 4.083 3.05 7.05v0c0 2.967-1.027 5.273-3.08 6.92-2.047 1.653-4.753 2.48-8.12 2.48v0l-0.35 0.25h-8.1v13.7h-4zM182.65-17.45h8.45c2.367 0 4.127-0.493 5.28-1.48 1.147-0.98 1.72-2.453 1.72-4.42v0c0-1.967-0.573-3.443-1.72-4.43-1.153-0.98-2.913-1.47-5.28-1.47v0h-8.45zM190.05-14.45l3.35-2.2 10.9 16.65h-4.75zM225.2-33.5v0c3.133 0 5.84 0.69 8.12 2.07 2.287 1.387 4.057 3.347 5.31 5.88 1.247 2.533 1.87 5.55 1.87 9.05v0c0 3.5-0.623 6.517-1.87 9.05-1.253 2.533-3.023 4.49-5.31 5.87-2.28 1.387-4.987 2.08-8.12 2.08v0c-3.133 0-5.843-0.693-8.13-2.08-2.28-1.38-4.043-3.337-5.29-5.87-1.253-2.533-1.88-5.55-1.88-9.05v0c0-3.5 0.627-6.517 1.88-9.05 1.247-2.533 3.01-4.493 5.29-5.88 2.287-1.38 4.997-2.07 8.13-2.07zM225.2-29.75v0c-2.267 0-4.233 0.523-5.9 1.57-1.667 1.053-2.95 2.57-3.85 4.55-0.9 1.987-1.35 4.363-1.35 7.13v0c0 2.767 0.45 5.14 1.35 7.12 0.9 1.987 2.183 3.503 3.85 4.55 1.667 1.053 3.633 1.58 5.9 1.58v0c2.3 0 4.277-0.527 5.93-1.58 1.647-1.047 2.92-2.563 3.82-4.55 0.9-1.98 1.35-4.353 1.35-7.12v0c0-2.767-0.45-5.143-1.35-7.13-0.9-1.98-2.173-3.497-3.82-4.55-1.653-1.047-3.63-1.57-5.93-1.57zM262.6-33.5v0c3.133 0 5.843 0.69 8.13 2.07 2.28 1.387 4.043 3.347 5.29 5.88 1.253 2.533 1.88 5.55 1.88 9.05v0c0 3.5-0.627 6.517-1.88 9.05-1.247 2.533-3.01 4.49-5.29 5.87-2.287 1.387-4.997 2.08-8.13 2.08v0c-3.133 0-5.843-0.693-8.13-2.08-2.28-1.38-4.043-3.337-5.29-5.87-1.253-2.533-1.88-5.55-1.88-9.05v0c0-3.5 0.627-6.517 1.88-9.05 1.247-2.533 3.01-4.493 5.29-5.88 2.287-1.38 4.997-2.07 8.13-2.07zM262.6-29.75v0c-2.267 0-4.233 0.523-5.9 1.57-1.667 1.053-2.95 2.57-3.85 4.55-0.9 1.987-1.35 4.363-1.35 7.13v0c0 2.767 0.45 5.14 1.35 7.12 0.9 1.987 2.183 3.503 3.85 4.55 1.667 1.053 3.633 1.58 5.9 1.58v0c2.3 0 4.273-0.527 5.92-1.58 1.653-1.047 2.93-2.563 3.83-4.55 0.9-1.98 1.35-4.353 1.35-7.12v0c0-2.767-0.45-5.143-1.35-7.13-0.9-1.98-2.177-3.497-3.83-4.55-1.647-1.047-3.62-1.57-5.92-1.57zM312.45-33h6.15v33h-3.8v-20.75l0.45-8.7h-0.05l-10.85 29.45h-3.4l-10.85-29.45h-0.05l0.45 8.7v20.75h-3.8v-33h6.15l7.25 20.05 2.5 8.25h0.1l2.55-8.2z" fill="#000000" fill-rule="nonzero" stroke="none" stroke-width="1" stroke-linecap="butt" stroke-linejoin="miter" stroke-miterlimit="10" stroke-dasharray="" stroke-dashoffset="0" font-family="none" font-weight="none" font-size="none" text-anchor="none" style="mix-blend-mode: normal" data-fill-palette-color="primary" opacity="1"></path></g></svg></g></svg></g></svg></g></svg></g><g transform="matrix(1,0,0,1,0,0.11681226053639548)"><svg viewBox="0 0 41.90616484291186 46.72490421455937" height="46.72490421455937" width="41.90616484291186"><g><svg xmlns="http://www.w3.org/2000/svg" xmlns:xlink="http://www.w3.org/1999/xlink" version="1.1" x="0" y="0" viewBox="5.156999999999999 0 89.687 100" enable-background="new 0 0 100 100" xml:space="preserve" height="46.72490421455937" width="41.90616484291186" class="icon-icon-0" data-fill-palette-color="accent" id="icon-0"><g fill="#ff4057" data-fill-palette-color="accent"><g fill="#ff4057" data-fill-palette-color="accent"><g fill="#ff4057" data-fill-palette-color="accent"><path d="M94.844 54.281l-5.167-3.919L63.912 69.896l-9.258-7.019 25.767-19.534-5.164-3.917L49.494 58.965 27.759 42.488l-5.169 3.915 21.739 16.479L32.06 72.186 10.322 55.703l-5.165 3.921L58.414 100l5.163-3.919-11.937-9.048 12.271-9.305 11.936 9.049 5.166-3.916-11.936-9.049L94.844 54.281zM46.478 83.116l-9.256-7.019 12.268-9.303 9.257 7.018L46.478 83.116z" fill="#ff4057" data-fill-palette-color="accent"></path></g><path d="M44.408 34.908l6.053 16.474 6.055-16.477c6.945-2.49 11.928-9.113 11.928-16.92C68.443 8.053 60.391 0 50.461 0c-9.935 0-17.988 8.053-17.988 17.985C32.473 25.793 37.455 32.419 44.408 34.908zM50.171 7.516l3.612 3.678V9.32h2.808v4.737l3.607 3.682h-2.407v8.723h-6.215V21.25h-2.809v5.212h-6.215v-8.723h-2.407L50.171 7.516z" fill="#ff4057" data-fill-palette-color="accent"></path></g></g></svg></g></svg></g></svg></g><defs></defs></svg><rect width="395.52" height="40.23876836570647" fill="none" stroke="none" visibility="hidden"></rect></g></svg></g></svg>