<svg width="799.9999999999999" height="150" xmlns="http://www.w3.org/2000/svg" version="1.1">
 <g>
  <title>Layer 1</title>
  <rect x="57.14238" y="377.1398" id="svg_27" fill="#ffffff" height="211.43496" width="880.00101"/>
  <g id="svg_5" transform="matrix(0.7, 0, 0, 0.7, 149.576, 464.861)">
   <svg y="-604.07676" x="-146.9376" id="svg_28" xmlns:xlink="http://www.w3.org/1999/xlink" xmlns="http://www.w3.org/2000/svg" width="1000" height="101" preserveAspectRatio="xMidYMid meet" data-background-color="#ffffff" viewBox="0 0 396 40">
    <g transform="matrix(1,0,0,1,0.2400000000000091,-0.11938418285322427)" id="svg_1">
     <svg id="svg_29" width="395.52" height="40.23877" viewBox="0 0 395.52 40.23876836570647">
      <svg id="svg_30" width="395.52" height="40.23877" viewBox="0 0 461.57071997626355 46.958528735632164">
       <g id="svg_31">
        <rect data-palette-color="#000000" id="svg_12" rx="1%" data-fill-palette-color="primary" class="rect-in-0" stroke="transparent" stroke-width="0" fill="#000000" y="0" x="52.04242" height="46.95853" width="3.87205"/>
       </g>
       <g id="svg_15" transform="matrix(1,0,0,1,66.05071997626358,0.11681226053639548)">
        <svg id="svg_32" width="395.52" height="46.7249" viewBox="0 0 395.52 46.72490421455937">
         <svg id="svg_33" width="395.52" height="46.7249" viewBox="0 0 395.52 46.72490421455937">
          <svg id="svg_34" width="395.52" height="46.7249" viewBox="0 0 395.52 46.72490421455937">
           <svg id="svg_35" data-palette-color="#000000" height="46.7249" viewBox="5.400000000000002 -33.5 313.2 34" width="395.52">
            <svg id="svg_36"/>
            <g id="svg_20" data-fill-palette-color="primary" class="undefined-text-0">
             <path id="svg_37" data-fill-palette-color="primary" text-anchor="none" font-size="none" font-weight="none" font-family="none" stroke-dashoffset="0" stroke-miterlimit="10" fill-rule="nonzero" fill="#000000" d="m17.1,0l-11.7,0l0,-33l11.75,0c3.9,0 6.75,0.817 8.55,2.45c1.8,1.633 2.7,3.85 2.7,6.65l0,0c0,1.667 -0.483,3.173 -1.45,4.52c-0.967,1.353 -2.333,2.213 -4.1,2.58l0,0l0,0.05c1.967,0.367 3.527,1.257 4.68,2.67c1.147,1.42 1.72,3.03 1.72,4.83l0,0c0,2.8 -1.05,5.04 -3.15,6.72c-2.1,1.687 -5.1,2.53 -9,2.53zm-7.7,-14.75l0,11l8.65,0c2.367,0 4.127,-0.483 5.28,-1.45c1.147,-0.967 1.72,-2.317 1.72,-4.05l0,0c0,-1.767 -0.573,-3.127 -1.72,-4.08c-1.153,-0.947 -2.913,-1.42 -5.28,-1.42l0,0l-8.65,0zm0,-14.5l0,10.75l7.8,0c4.667,0 7,-1.8 7,-5.4l0,0c0,-3.567 -2.333,-5.35 -7,-5.35l0,0l-7.8,0zm41.95,-4.25l0,0c3.133,0 5.843,0.69 8.13,2.07c2.28,1.387 4.047,3.347 5.3,5.88c1.247,2.533 1.87,5.55 1.87,9.05l0,0c0,3.5 -0.623,6.517 -1.87,9.05c-1.253,2.533 -3.02,4.49 -5.3,5.87c-2.287,1.387 -4.997,2.08 -8.13,2.08l0,0c-3.133,0 -5.84,-0.693 -8.12,-2.08c-2.287,-1.38 -4.057,-3.337 -5.31,-5.87c-1.247,-2.533 -1.87,-5.55 -1.87,-9.05l0,0c0,-3.5 0.623,-6.517 1.87,-9.05c1.253,-2.533 3.023,-4.493 5.31,-5.88c2.28,-1.38 4.987,-2.07 8.12,-2.07zm0,3.75l0,0c-2.267,0 -4.233,0.523 -5.9,1.57c-1.667,1.053 -2.95,2.57 -3.85,4.55c-0.9,1.987 -1.35,4.363 -1.35,7.13l0,0c0,2.767 0.45,5.14 1.35,7.12c0.9,1.987 2.183,3.503 3.85,4.55c1.667,1.053 3.633,1.58 5.9,1.58l0,0c2.3,0 4.273,-0.527 5.92,-1.58c1.653,-1.047 2.93,-2.563 3.83,-4.55c0.9,-1.98 1.35,-4.353 1.35,-7.12l0,0c0,-2.767 -0.45,-5.143 -1.35,-7.13c-0.9,-1.98 -2.177,-3.497 -3.83,-4.55c-1.647,-1.047 -3.62,-1.57 -5.92,-1.57zm37.4,-3.75l0,0c3.133,0 5.843,0.69 8.13,2.07c2.28,1.387 4.043,3.347 5.29,5.88c1.253,2.533 1.88,5.55 1.88,9.05l0,0c0,3.5 -0.627,6.517 -1.88,9.05c-1.247,2.533 -3.01,4.49 -5.29,5.87c-2.287,1.387 -4.997,2.08 -8.13,2.08l0,0c-3.133,0 -5.84,-0.693 -8.12,-2.08c-2.287,-1.38 -4.053,-3.337 -5.3,-5.87c-1.253,-2.533 -1.88,-5.55 -1.88,-9.05l0,0c0,-3.5 0.627,-6.517 1.88,-9.05c1.247,-2.533 3.013,-4.493 5.3,-5.88c2.28,-1.38 4.987,-2.07 8.12,-2.07zm0,3.75l0,0c-2.267,0 -4.233,0.523 -5.9,1.57c-1.667,1.053 -2.95,2.57 -3.85,4.55c-0.9,1.987 -1.35,4.363 -1.35,7.13l0,0c0,2.767 0.45,5.14 1.35,7.12c0.9,1.987 2.183,3.503 3.85,4.55c1.667,1.053 3.633,1.58 5.9,1.58l0,0c2.3,0 4.273,-0.527 5.92,-1.58c1.653,-1.047 2.93,-2.563 3.83,-4.55c0.9,-1.98 1.35,-4.353 1.35,-7.12l0,0c0,-2.767 -0.45,-5.143 -1.35,-7.13c-0.9,-1.98 -2.177,-3.497 -3.83,-4.55c-1.647,-1.047 -3.62,-1.57 -5.92,-1.57zm44.7,-3.25l5.25,0l-14.4,14.75l-0.6,0.65l-8.85,9.05l0,-5.4l18.6,-19.05zm-20.6,0l4,0l0,33l-4,0l0,-33zm8.55,14.45l3.3,-2.25l14.15,20.8l-4.8,0l-12.65,-18.55zm24.35,18.55l-4.2,0l12.85,-33l4.75,0l12.8,33l-4.25,0l-9.4,-24.6l-1.55,-4.6l-0.1,0l-1.45,4.45l-9.45,24.75zm19.75,-9.15l-17.65,0l0,-3.75l17.65,0l0,3.75zm13.15,-23.85l12.5,0c3.367,0 6.067,0.867 8.1,2.6c2.033,1.733 3.05,4.083 3.05,7.05l0,0c0,2.967 -1.027,5.273 -3.08,6.92c-2.047,1.653 -4.753,2.48 -8.12,2.48l0,0l-0.35,0.25l-8.1,0l0,13.7l-4,0l0,-33zm4,15.55l8.45,0c2.367,0 4.127,-0.493 5.28,-1.48c1.147,-0.98 1.72,-2.453 1.72,-4.42l0,0c0,-1.967 -0.573,-3.443 -1.72,-4.43c-1.153,-0.98 -2.913,-1.47 -5.28,-1.47l0,0l-8.45,0l0,11.8zm7.4,3l3.35,-2.2l10.9,16.65l-4.75,0l-9.5,-14.45zm35.15,-19.05l0,0c3.133,0 5.84,0.69 8.12,2.07c2.287,1.387 4.057,3.347 5.31,5.88c1.247,2.533 1.87,5.55 1.87,9.05l0,0c0,3.5 -0.623,6.517 -1.87,9.05c-1.253,2.533 -3.023,4.49 -5.31,5.87c-2.28,1.387 -4.987,2.08 -8.12,2.08l0,0c-3.133,0 -5.843,-0.693 -8.13,-2.08c-2.28,-1.38 -4.043,-3.337 -5.29,-5.87c-1.253,-2.533 -1.88,-5.55 -1.88,-9.05l0,0c0,-3.5 0.627,-6.517 1.88,-9.05c1.247,-2.533 3.01,-4.493 5.29,-5.88c2.287,-1.38 4.997,-2.07 8.13,-2.07zm0,3.75l0,0c-2.267,0 -4.233,0.523 -5.9,1.57c-1.667,1.053 -2.95,2.57 -3.85,4.55c-0.9,1.987 -1.35,4.363 -1.35,7.13l0,0c0,2.767 0.45,5.14 1.35,7.12c0.9,1.987 2.183,3.503 3.85,4.55c1.667,1.053 3.633,1.58 5.9,1.58l0,0c2.3,0 4.277,-0.527 5.93,-1.58c1.647,-1.047 2.92,-2.563 3.82,-4.55c0.9,-1.98 1.35,-4.353 1.35,-7.12l0,0c0,-2.767 -0.45,-5.143 -1.35,-7.13c-0.9,-1.98 -2.173,-3.497 -3.82,-4.55c-1.653,-1.047 -3.63,-1.57 -5.93,-1.57zm37.4,-3.75l0,0c3.133,0 5.843,0.69 8.13,2.07c2.28,1.387 4.043,3.347 5.29,5.88c1.253,2.533 1.88,5.55 1.88,9.05l0,0c0,3.5 -0.627,6.517 -1.88,9.05c-1.247,2.533 -3.01,4.49 -5.29,5.87c-2.287,1.387 -4.997,2.08 -8.13,2.08l0,0c-3.133,0 -5.843,-0.693 -8.13,-2.08c-2.28,-1.38 -4.043,-3.337 -5.29,-5.87c-1.253,-2.533 -1.88,-5.55 -1.88,-9.05l0,0c0,-3.5 0.627,-6.517 1.88,-9.05c1.247,-2.533 3.01,-4.493 5.29,-5.88c2.287,-1.38 4.997,-2.07 8.13,-2.07zm0,3.75l0,0c-2.267,0 -4.233,0.523 -5.9,1.57c-1.667,1.053 -2.95,2.57 -3.85,4.55c-0.9,1.987 -1.35,4.363 -1.35,7.13l0,0c0,2.767 0.45,5.14 1.35,7.12c0.9,1.987 2.183,3.503 3.85,4.55c1.667,1.053 3.633,1.58 5.9,1.58l0,0c2.3,0 4.273,-0.527 5.92,-1.58c1.653,-1.047 2.93,-2.563 3.83,-4.55c0.9,-1.98 1.35,-4.353 1.35,-7.12l0,0c0,-2.767 -0.45,-5.143 -1.35,-7.13c-0.9,-1.98 -2.177,-3.497 -3.83,-4.55c-1.647,-1.047 -3.62,-1.57 -5.92,-1.57zm49.85,-3.25l6.15,0l0,33l-3.8,0l0,-20.75l0.45,-8.7l-0.05,0l-10.85,29.45l-3.4,0l-10.85,-29.45l-0.05,0l0.45,8.7l0,20.75l-3.8,0l0,-33l6.15,0l7.25,20.05l2.5,8.25l0.1,0l2.55,-8.2l7.2,-20.1z"/>
            </g>
           </svg>
          </svg>
         </svg>
        </svg>
       </g>
       <g id="svg_24" transform="matrix(1,0,0,1,0,0.11681226053639548)">
        <svg id="svg_38" width="41.90616" height="46.7249" viewBox="0 0 41.90616484291186 46.72490421455937">
         <svg id="svg_25" data-fill-palette-color="accent" class="icon-icon-0" width="41.90616" height="46.7249" xml:space="preserve" enable-background="new 0 0 100 100" viewBox="5.156999999999999 0 89.687 100" y="0" x="0" version="1.1" xmlns:xlink="http://www.w3.org/1999/xlink" xmlns="http://www.w3.org/2000/svg">
          <g id="svg_39" data-fill-palette-color="accent" fill="#ff4057">
           <g id="svg_40" data-fill-palette-color="accent" fill="#ff4057">
            <g id="svg_41" data-fill-palette-color="accent" fill="#ff4057">
             <path id="svg_42" data-fill-palette-color="accent" fill="#ff4057" d="m94.844,54.281l-5.167,-3.919l-25.765,19.534l-9.258,-7.019l25.767,-19.534l-5.164,-3.917l-25.763,19.539l-21.735,-16.477l-5.169,3.915l21.739,16.479l-12.269,9.304l-21.738,-16.483l-5.165,3.921l53.257,40.376l5.163,-3.919l-11.937,-9.048l12.271,-9.305l11.936,9.049l5.166,-3.916l-11.936,-9.049l25.767,-19.531zm-48.366,28.835l-9.256,-7.019l12.268,-9.303l9.257,7.018l-12.269,9.304z"/>
            </g>
            <path id="svg_43" data-fill-palette-color="accent" fill="#ff4057" d="m44.408,34.908l6.053,16.474l6.055,-16.477c6.945,-2.49 11.928,-9.113 11.928,-16.92c-0.001,-9.932 -8.053,-17.985 -17.983,-17.985c-9.935,0 -17.988,8.053 -17.988,17.985c0,7.808 4.982,14.434 11.935,16.923zm5.763,-27.392l3.612,3.678l0,-1.874l2.808,0l0,4.737l3.607,3.682l-2.407,0l0,8.723l-6.215,0l0,-5.212l-2.809,0l0,5.212l-6.215,0l0,-8.723l-2.407,0l10.026,-10.223z"/>
           </g>
          </g>
         </svg>
        </svg>
       </g>
      </svg>

     </svg>
     <rect id="svg_44" visibility="hidden" fill="none" height="40.23877" width="395.52"/>
    </g>
   </svg>
  </g>
 </g>
</svg>